<svg id="_x31_" enable-background="new 0 0 24 24" height="512" viewBox="0 0 24 24" width="512" xmlns="http://www.w3.org/2000/svg"><g><path d="m19.5 24h-15c-1.378 0-2.5-1.121-2.5-2.5v-19c0-1.379 1.122-2.5 2.5-2.5h11.766c.616 0 1.208.227 1.667.637l3.234 2.894c.529.474.833 1.153.833 1.864v16.105c0 1.379-1.122 2.5-2.5 2.5zm-15-23c-.827 0-1.5.673-1.5 1.5v19c0 .827.673 1.5 1.5 1.5h15c.827 0 1.5-.673 1.5-1.5v-16.105c0-.427-.182-.834-.5-1.119l-3.234-2.893c-.276-.247-.631-.383-1-.383z"/></g><g><path d="m5.5 6c-.276 0-.5-.224-.5-.5v-2c0-.276.224-.5.5-.5s.5.224.5.5v2c0 .276-.224.5-.5.5z"/></g><g><path d="m8.5 6c-.276 0-.5-.224-.5-.5v-2c0-.276.224-.5.5-.5s.5.224.5.5v2c0 .276-.224.5-.5.5z"/></g><g><path d="m11.5 6c-.276 0-.5-.224-.5-.5v-2c0-.276.224-.5.5-.5s.5.224.5.5v2c0 .276-.224.5-.5.5z"/></g><g><path d="m14.5 6c-.276 0-.5-.224-.5-.5v-2c0-.276.224-.5.5-.5s.5.224.5.5v2c0 .276-.224.5-.5.5z"/></g><g><path d="m18.5 21h-13c-.276 0-.5-.224-.5-.5v-8c0-.276.224-.5.5-.5h13c.276 0 .5.224.5.5v8c0 .276-.224.5-.5.5zm-12.5-1h12v-7h-12z"/></g></svg>